<?xml version="1.0" encoding="UTF-8" standalone="no" ?>
<!DOCTYPE svg PUBLIC "-//W3C//DTD SVG 1.1//EN" "http://www.w3.org/Graphics/SVG/1.1/DTD/svg11.dtd">
<svg xmlns="http://www.w3.org/2000/svg" xmlns:xlink="http://www.w3.org/1999/xlink" version="1.1" width="192" height="64" viewBox="0 0 192 64" xml:space="preserve">
<desc>Created with Fabric.js 4.6.0</desc>
<defs>
</defs>
<g transform="matrix(0.18 0 0 0.18 96 28.01)" id="9lOomhkcjIIaebGG7mtVu"  >
<g style="" vector-effect="non-scaling-stroke"   >
		<g transform="matrix(0.13 0 0 -0.13 110.18 -88.73)" id="f9DxEKcvcBLltfmlRw0cx"  >
<path style="stroke: none; stroke-width: 1; stroke-dasharray: none; stroke-linecap: butt; stroke-dashoffset: 0; stroke-linejoin: miter; stroke-miterlimit: 4; fill: rgb(0,0,0); fill-rule: nonzero; opacity: 1;" vector-effect="non-scaling-stroke"  transform=" translate(-2101.38, -1640.51)" d="M 2039 1793 C 2025 1791 1995 1771 1974 1749 C 1936 1710 1935 1707 1935 1638 C 1935 1568 1935 1568 1977 1530 C 2008 1503 2032 1491 2066 1486 C 2158 1474 2223 1511 2255 1594 C 2272 1638 2272 1642 2255 1686 C 2221 1776 2152 1810 2039 1793 z" stroke-linecap="round" />
</g>
		<g transform="matrix(0.13 0 0 -0.13 -12.61 34.45)" id="ODORoj8i9eGYSAKB79FmX"  >
<path style="stroke: none; stroke-width: 1; stroke-dasharray: none; stroke-linecap: butt; stroke-dashoffset: 0; stroke-linejoin: miter; stroke-miterlimit: 4; fill: rgb(0,0,0); fill-rule: nonzero; opacity: 1;" vector-effect="non-scaling-stroke"  transform=" translate(-1180.41, -716.66)" d="M 970 1315 C 864 1300 798 1283 742 1259 C 705 1242 700 1236 705 1217 C 711 1196 756 1082 786 1012 C 794 994 800 973 800 965 C 800 945 819 937 835 950 C 843 957 884 1032 927 1117 C 969 1202 1012 1276 1023 1282 C 1058 1300 1160 1281 1202 1249 C 1275 1191 1300 1097 1300 885 C 1300 723 1297 718 1230 750 C 1211 760 1158 773 1113 780 C 981 801 864 774 770 701 C 690 637 657 584 639 487 C 611 338 676 199 804 133 C 849 109 866 106 955 106 C 1045 106 1060 109 1109 134 C 1171 166 1231 224 1250 269 C 1268 313 1296 310 1305 263 C 1315 209 1346 163 1393 132 C 1429 108 1443 105 1516 105 C 1592 105 1602 108 1641 135 C 1678 161 1703 192 1726 237 C 1729 244 1729 257 1726 265 C 1721 279 1718 279 1696 264 C 1661 242 1618 253 1597 290 C 1581 316 1580 353 1582 667 C 1585 1007 1584 1016 1562 1078 C 1550 1112 1529 1158 1516 1179 C 1435 1307 1245 1354 970 1315 z M 1282 697 C 1286 691 1290 615 1290 530 C 1290 356 1286 343 1214 291 C 1084 196 930 288 930 461 C 930 504 950 582 966 601 C 974 609 980 621 980 627 C 980 642 1071 704 1105 712 C 1149 722 1273 712 1282 697 z" stroke-linecap="round" />
</g>
		<g transform="matrix(0.13 0 0 -0.13 111.31 35.31)" id="I8jY8O0v5fMsFReOqzaD8"  >
<path style="stroke: none; stroke-width: 1; stroke-dasharray: none; stroke-linecap: butt; stroke-dashoffset: 0; stroke-linejoin: miter; stroke-miterlimit: 4; fill: rgb(0,0,0); fill-rule: nonzero; opacity: 1;" vector-effect="non-scaling-stroke"  transform=" translate(-2109.81, -710.19)" d="M 1810 1301 C 1810 1297 1838 1269 1873 1239 C 1907 1210 1940 1178 1947 1170 C 1956 1159 1959 1043 1960 702 L 1960 248 L 1931 222 C 1894 188 1884 180 1837 151 C 1817 139 1802 124 1806 119 C 1813 108 2407 107 2414 119 C 2417 123 2394 145 2362 166 C 2331 187 2295 216 2283 229 L 2260 253 L 2260 781 L 2260 1310 L 2035 1310 C 1911 1310 1810 1306 1810 1301 z" stroke-linecap="round" />
</g>
		<g transform="matrix(0.13 0 0 -0.13 -127.43 90.35)" id="UyQEdI5F1Nk4If_QJukRQ"  >
<path style="stroke: none; stroke-width: 1; stroke-dasharray: none; stroke-linecap: butt; stroke-dashoffset: 0; stroke-linejoin: miter; stroke-miterlimit: 4; fill: rgb(0,0,0); fill-rule: nonzero; opacity: 1;" vector-effect="non-scaling-stroke"  transform=" translate(-319.25, -297.36)" d="M 224 471 C 156 434 120 372 120 293 C 120 232 149 176 199 141 C 236 115 322 97 353 110 C 365 115 386 121 400 124 C 440 132 485 181 505 237 C 523 288 523 290 505 343 C 471 443 408 491 311 489 C 280 488 241 480 224 471 z" stroke-linecap="round" />
</g>
</g>
</g>
</svg>